<?xml version="1.0" encoding="UTF-8"?>
<svg version="1.1" xmlns="http://www.w3.org/2000/svg" width="280" height="280">
<path d="M0 0 C0.71453339 -0.00067474 1.42906677 -0.00134949 2.16525269 -0.00204468 C39.91138198 0.05453988 72.64614737 14.11414211 99.75 40.25 C100.52859375 40.96542969 101.3071875 41.68085937 102.109375 42.41796875 C124.68090519 63.74886519 139.45462123 96.67020836 140.91113281 127.68066406 C140.95728375 131.62066659 140.99667049 135.55972222 141 139.5 C141.00067474 140.21453339 141.00134949 140.92906677 141.00204468 141.66525269 C140.94546012 179.41138198 126.88585789 212.14614737 100.75 239.25 C99.67685547 240.41789062 99.67685547 240.41789062 98.58203125 241.609375 C77.25113481 264.18090519 44.32979164 278.95462123 13.31933594 280.41113281 C9.37933341 280.45728375 5.44027778 280.49667049 1.5 280.5 C0.78546661 280.50067474 0.07093323 280.50134949 -0.66525269 280.50204468 C-17.73316103 280.47645848 -33.28346181 278.64043959 -49.25 272.25 C-50.01425293 271.94852051 -50.77850586 271.64704102 -51.56591797 271.33642578 C-69.64423092 264.0742588 -84.35490416 253.81475181 -98.25 240.25 C-99.02472656 239.53714844 -99.79945312 238.82429687 -100.59765625 238.08984375 C-123.18393007 216.77828027 -137.95497837 183.82218774 -139.41113281 152.81933594 C-139.45728375 148.87933341 -139.49667049 144.94027778 -139.5 141 C-139.50067474 140.28546661 -139.50134949 139.57093323 -139.50204468 138.83474731 C-139.44546012 101.08861802 -125.38585789 68.35385263 -99.25 41.25 C-98.53457031 40.47140625 -97.81914063 39.6928125 -97.08203125 38.890625 C-72.10441261 12.46027432 -35.65323743 0.03012676 0 0 Z " fill="#47A503" transform="translate(139.25,-0.25)"/>
<path d="M0 0 C0.66 0 1.32 0 2 0 C4.22590888 3.61441431 4.3888067 6.85426541 4.6328125 11.046875 C4.67437469 11.73573792 4.71593689 12.42460083 4.75875854 13.13433838 C4.84512907 14.59664301 4.92723249 16.05920505 5.00537109 17.52197266 C5.12239935 19.70156426 5.25331218 21.87995046 5.38671875 24.05859375 C5.95287378 33.71363234 6.10280322 43.32997059 6 53 C9.23741482 51.92086173 9.61899212 51.46247616 11.5625 48.875 C17.42464579 41.87180393 25.22343281 37.71555057 33.25 33.625 C34.26006104 33.10595093 34.26006104 33.10595093 35.29052734 32.57641602 C39.19227197 30.6506229 42.61813181 29.47629002 47 29 C47 29.99 47 30.98 47 32 C46.37996094 32.18433594 45.75992188 32.36867187 45.12109375 32.55859375 C31.75568519 36.93591096 20.48631218 44.77814958 10 54 C11.30155006 58.07964281 11.30155006 58.07964281 13 62 C13.3125 65.4375 13.3125 65.4375 13 69 C10.74640305 71.33130719 9.08784275 71.97071908 6 73 C6 74.98 6 76.96 6 79 C9.78851375 81.35663454 13.84971925 81.69010114 18.1875 82.1875 C18.92419922 82.28224609 19.66089844 82.37699219 20.41992188 82.47460938 C22.27475325 82.69814471 24.13740001 82.85478034 26 83 C26.33 82.67 26.66 82.34 27 82 C28.85287502 81.92773498 30.70833878 81.9161878 32.5625 81.9375 C34.08037109 81.95103516 34.08037109 81.95103516 35.62890625 81.96484375 C36.41136719 81.97644531 37.19382813 81.98804687 38 82 C38 81.34 38 80.68 38 80 C39.65 80.66 41.3 81.32 43 82 C43 82.66 43 83.32 43 84 C41.7625 84.061875 40.525 84.12375 39.25 84.1875 C37.02771705 84.38018012 37.02771705 84.38018012 35 85 C34.360625 85.86625 33.72125 86.7325 33.0625 87.625 C31 90 31 90 29.04296875 90.2109375 C25.16707194 89.85438141 21.85960475 89.01653373 18.3125 87.4375 C12.52594697 85.00974048 6.14922351 85.76681315 0 86 C-2.57642837 89.81035001 -2.05270779 93.5029818 -1.6875 97.875 C-1.25016985 103.13705171 -0.95773774 108.23702775 -1.265625 113.515625 C-1.77548652 124.87742569 -1.77548652 124.87742569 3.4140625 134.63671875 C6.1095984 137.4228954 8.96720856 139.92184606 11.94921875 142.39453125 C15.69706625 145.50455941 18.17594992 148.85674794 20.69897461 153.00317383 C21.94386804 154.91384813 23.21181191 156.32807024 24.875 157.875 C25.57625 158.57625 26.2775 159.2775 27 160 C27 160.99 27 161.98 27 163 C20.71099919 161.97038482 16.72065756 156.34439593 13.125 151.4453125 C12.50625 150.55585938 11.8875 149.66640625 11.25 148.75 C7.68911435 143.65998652 3.65822578 139.44669378 -0.87597656 135.23535156 C-5.23645925 131.09818972 -7.79087714 127.42582514 -8.3125 121.375 C-8 118 -8 118 -7 116.0625 C-5.40465079 112.77209224 -5.87922723 109.62318319 -6 106 C-7.65 105.67 -9.3 105.34 -11 105 C-11.54527344 106.11117187 -12.09054688 107.22234375 -12.65234375 108.3671875 C-17.17330915 117.36660138 -21.74894617 124.8839751 -29 132 C-29.80630859 132.91072266 -29.80630859 132.91072266 -30.62890625 133.83984375 C-34.66263069 138.29817076 -39.4455789 141.35731299 -44.51196289 144.51049805 C-50.62113695 148.32355216 -56.29612352 152.60289398 -62 157 C-62.74894531 157.51691406 -63.49789062 158.03382813 -64.26953125 158.56640625 C-66.73311975 160.60734751 -67.0442494 163.0053148 -68 166 C-71.22791555 168.1519437 -72.28400809 168.20086443 -76 168 C-76.24983643 168.81968262 -76.49967285 169.63936523 -76.75708008 170.48388672 C-78.1998746 174.56542802 -79.99030217 178.37145438 -81.88671875 182.2578125 C-82.26681595 183.04211639 -82.64691315 183.82642029 -83.03852844 184.63449097 C-83.84275368 186.29108622 -84.6488789 187.94676028 -85.45678711 189.6015625 C-86.67208083 192.09338473 -87.87841091 194.58940092 -89.08398438 197.0859375 C-92.97604564 205.10095265 -96.92216242 212.91969951 -101.69848633 220.45263672 C-103.15720306 223.30768275 -103.50847046 225.85314545 -104 229 C-105.828125 230.03515625 -105.828125 230.03515625 -108 231 C-109.99685691 233.50750764 -109.99685691 233.50750764 -111.75 236.4375 C-112.36359375 237.40558594 -112.9771875 238.37367188 -113.609375 239.37109375 C-115.23379298 241.94629845 -115.23379298 241.94629845 -115 245 C-120.75 243.25 -120.75 243.25 -123 241 C-121.68 241 -120.36 241 -119 241 C-118.79375 240.34 -118.5875 239.68 -118.375 239 C-116.79127101 235.54459131 -114.70107004 232.90209976 -112.37890625 229.9140625 C-110.80123414 227.72409271 -109.98759383 225.50190436 -109 223 C-108.29230469 222.23945313 -107.58460937 221.47890625 -106.85546875 220.6953125 C-103.01342806 216.1690351 -100.76344752 210.74868938 -98.26675415 205.4074707 C-97.05561742 202.81683758 -95.82533626 200.2354586 -94.59596252 197.65344238 C-93.97184031 196.34228607 -93.34866163 195.03068021 -92.72642517 193.71862793 C-89.82684181 187.60985223 -86.83904461 181.54687242 -83.8125 175.5 C-83.3676123 174.60603516 -82.92272461 173.71207031 -82.46435547 172.79101562 C-75.5208352 158.93094021 -75.5208352 158.93094021 -68.4375 155.92578125 C-62.09164871 152.84610923 -57.789602 148.27271025 -53 143.1875 C-38.55047531 128.04936515 -38.55047531 128.04936515 -30.20703125 123.46557617 C-29.47871094 122.98193604 -28.75039062 122.4982959 -28 122 C-28 121.01 -28 120.02 -28 119 C-28.58265625 119.42410156 -29.1653125 119.84820312 -29.765625 120.28515625 C-35.39801248 124.31461585 -41.16097025 127.87364822 -47.17578125 131.30078125 C-49.70429058 132.82208354 -51.9926915 134.43274189 -54.3125 136.25 C-62.45964055 142.4557649 -68.89863846 142.37827567 -79 142 C-79.703125 140.23046875 -79.703125 140.23046875 -80 138 C-78.671875 136.17578125 -78.671875 136.17578125 -76.75 134.3125 C-74.10108461 131.49184746 -72.56139635 129.42833332 -71.5625 125.6875 C-69.07934375 116.85172931 -61.59928354 108.26931936 -55 102 C-52.796875 100.78515625 -52.796875 100.78515625 -51 100 C-51 99.34 -51 98.68 -51 98 C-51.77496826 98.06638672 -52.54993652 98.13277344 -53.34838867 98.20117188 C-64.90148649 99.11521181 -76.44790986 99.32963428 -88.03100586 99.55224609 C-90.64186788 99.60368468 -93.25255431 99.66091559 -95.86328125 99.71875 C-96.66727859 99.73232544 -97.47127594 99.74590088 -98.29963684 99.7598877 C-101.9517977 99.50443297 -101.9517977 99.50443297 -105 101 C-105.62648437 100.98839844 -106.25296875 100.97679688 -106.8984375 100.96484375 C-112.90889747 100.8984822 -115.89065107 102.29805888 -120.25 106.4375 C-121.15878906 107.33855469 -122.06757812 108.23960937 -123.00390625 109.16796875 C-126.66916285 112.7566858 -130.79974954 115.61072972 -135.01855469 118.50708008 C-138.22441807 120.71033924 -141.13048668 123.00741397 -144 125.625 C-149.16300077 129.60084658 -155.83957813 128.58144962 -162 128 C-163.67271986 127.69850844 -165.34280772 127.37762762 -167 127 C-167 126.34 -167 125.68 -167 125 C-166.15179688 125.0928125 -165.30359375 125.185625 -164.4296875 125.28125 C-152.25281682 126.03059589 -144.30984338 121.70606828 -135.125 113.875 C-134.61066406 113.39417969 -134.09632813 112.91335937 -133.56640625 112.41796875 C-131.82595837 110.84245109 -129.98222799 109.53759772 -128.0625 108.1875 C-124.01225708 105.2189009 -120.88641644 101.68763071 -117.6640625 97.85546875 C-115.389006 95.31872735 -114.46116399 95.02691574 -111.02587891 94.82641602 C-109.77210449 94.80248779 -108.51833008 94.77855957 -107.2265625 94.75390625 C-105.82942229 94.72090547 -104.43228702 94.6876951 -103.03515625 94.65429688 C-100.84590912 94.60738096 -98.65667197 94.56307696 -96.46728516 94.52319336 C-81.82636938 94.7547985 -81.82636938 94.7547985 -68 91 C-66.22947252 90.96506501 -64.45769155 90.98606567 -62.6875 91.03515625 C-50.51120696 91.7677005 -50.51120696 91.7677005 -39.3671875 87.9921875 C-36.90125272 85.46441109 -34.94570422 82.9419729 -33 80 C-31.7916407 78.56554437 -30.56375802 77.14719308 -29.3125 75.75 C-28.76722656 75.11449219 -28.22195312 74.47898437 -27.66015625 73.82421875 C-24.25485406 70.08239258 -20.8417421 66.61391403 -16 65 C-15.83346964 60.67021068 -15.84448822 57.77214561 -18 54 C-18 53.01 -18 52.02 -18 51 C-13.25 51.75 -13.25 51.75 -11 54 C-11.33 51.69 -11.66 49.38 -12 47 C-10.68 47.33 -9.36 47.66 -8 48 C-8 50.31 -8 52.62 -8 55 C-7.01 55.33 -6.02 55.66 -5 56 C-4.67 54.35 -4.34 52.7 -4 51 C-1.36 51 1.28 51 4 51 C2.82832583 33.98435239 1.54733307 16.98583634 0 0 Z " fill="#FBFDFA" transform="translate(191,20)"/>
<path d="M0 0 C1.27939453 -0.00128906 2.55878906 -0.00257812 3.87695312 -0.00390625 C4.54557373 -0.00181152 5.21419434 0.0002832 5.90307617 0.00244141 C7.93090394 0.00776442 9.9585075 0.002507 11.98632812 -0.00390625 C13.9112207 -0.00197266 13.9112207 -0.00197266 15.875 0 C17.05102783 0.00112793 18.22705566 0.00225586 19.4387207 0.00341797 C22.2972295 0.11907639 24.85933865 0.47543284 27.63671875 1.1328125 C27.63671875 1.4628125 27.63671875 1.7928125 27.63671875 2.1328125 C32.58671875 2.4628125 37.53671875 2.7928125 42.63671875 3.1328125 C42.63671875 3.4628125 42.63671875 3.7928125 42.63671875 4.1328125 C41.46052979 4.15786865 40.28434082 4.1829248 39.07250977 4.20874023 C34.72457253 4.30264056 30.37680159 4.40290298 26.02905273 4.50512695 C24.14432657 4.54854183 22.25955939 4.59021193 20.37475586 4.63012695 C17.67158626 4.68767143 14.96862439 4.75141054 12.265625 4.81640625 C11.41770889 4.83311874 10.56979279 4.84983124 9.69618225 4.86705017 C5.85379799 4.59690445 5.85379799 4.59690445 2.63671875 6.1328125 C2.01023438 6.12121094 1.38375 6.10960938 0.73828125 6.09765625 C-5.27217872 6.0312947 -8.25393232 7.43087138 -12.61328125 11.5703125 C-13.52207031 12.47136719 -14.43085937 13.37242187 -15.3671875 14.30078125 C-19.0324441 17.8894983 -23.16303079 20.74354222 -27.38183594 23.63989258 C-30.58769932 25.84315174 -33.49376793 28.14022647 -36.36328125 30.7578125 C-41.52628202 34.73365908 -48.20285938 33.71426212 -54.36328125 33.1328125 C-56.03600111 32.83132094 -57.70608897 32.51044012 -59.36328125 32.1328125 C-59.36328125 31.4728125 -59.36328125 30.8128125 -59.36328125 30.1328125 C-58.09097656 30.27203125 -58.09097656 30.27203125 -56.79296875 30.4140625 C-44.61609807 31.16340839 -36.67312463 26.83888078 -27.48828125 19.0078125 C-26.97394531 18.52699219 -26.45960937 18.04617187 -25.9296875 17.55078125 C-24.18923962 15.97526359 -22.34550924 14.67041022 -20.42578125 13.3203125 C-16.37553833 10.3517134 -13.24969769 6.82044321 -10.02734375 2.98828125 C-6.96938705 -0.42141226 -4.42445203 0.00425574 0 0 Z " fill="#F0F7EB" transform="translate(83.36328125,114.8671875)"/>
<path d="M0 0 C-0.05349609 0.58265625 -0.10699219 1.1653125 -0.16210938 1.765625 C-1.1978763 15.09770803 -1.1978763 15.09770803 4.41796875 26.70703125 C7.74673027 30.10136875 11.37750671 33.09029763 15.03222656 36.12304688 C17.79948039 38.7625813 19.71911162 41.74939864 21.69897461 45.00317383 C22.94386804 46.91384813 24.21181191 48.32807024 25.875 49.875 C26.57625 50.57625 27.2775 51.2775 28 52 C28 52.99 28 53.98 28 55 C21.71099919 53.97038482 17.72065756 48.34439593 14.125 43.4453125 C13.50625 42.55585938 12.8875 41.66640625 12.25 40.75 C8.68911435 35.65998652 4.65822578 31.44669378 0.12402344 27.23535156 C-4.23645925 23.09818972 -6.79087714 19.42582514 -7.3125 13.375 C-7.02784261 10.30070015 -6.64066326 8.56353634 -5 6 C-4.34 6 -3.68 6 -3 6 C-3 4.35 -3 2.7 -3 1 C-1 0 -1 0 0 0 Z " fill="#F0F7EB" transform="translate(190,128)"/>
<path d="M0 0 C1.22295649 3.66886948 0.41371057 4.55408047 -1 8 C-0.505 8.99 -0.505 8.99 0 10 C-0.69335938 11.96435547 -0.69335938 11.96435547 -1.84375 14.3671875 C-2.26277588 15.24753662 -2.68180176 16.12788574 -3.11352539 17.03491211 C-3.79983032 18.44075562 -3.79983032 18.44075562 -4.5 19.875 C-4.95689209 20.82576416 -5.41378418 21.77652832 -5.88452148 22.75610352 C-8.86768108 28.89236607 -12.03877394 34.78048735 -15.72265625 40.52734375 C-17.18392032 43.01728442 -17.18392032 43.01728442 -17.43359375 46.19140625 C-17.62050781 47.11824219 -17.80742188 48.04507813 -18 49 C-19.828125 50.03515625 -19.828125 50.03515625 -22 51 C-23.99685691 53.50750764 -23.99685691 53.50750764 -25.75 56.4375 C-26.36359375 57.40558594 -26.9771875 58.37367188 -27.609375 59.37109375 C-29.23379298 61.94629845 -29.23379298 61.94629845 -29 65 C-34.75 63.25 -34.75 63.25 -37 61 C-35.68 61 -34.36 61 -33 61 C-32.79375 60.34 -32.5875 59.68 -32.375 59 C-30.79127101 55.54459131 -28.70107004 52.90209976 -26.37890625 49.9140625 C-24.80123414 47.72409271 -23.98759383 45.50190436 -23 43 C-22.22599854 42.09813965 -21.45199707 41.1962793 -20.65454102 40.26708984 C-18.04172806 37.19138087 -16.31853113 34.01203654 -14.58984375 30.3515625 C-14.29566055 29.73534027 -14.00147736 29.11911804 -13.69837952 28.48422241 C-12.76987975 26.53491706 -11.85339087 24.58025631 -10.9375 22.625 C-10.32048009 21.32252854 -9.70264738 20.0204418 -9.08398438 18.71875 C-8.18907164 16.83512984 -7.29488315 14.95120396 -6.40438843 13.06549072 C-4.33153038 8.67736672 -2.19653757 4.32734334 0 0 Z " fill="#EEF6E8" transform="translate(105,200)"/>
<path d="M0 0 C0.99 0.33 1.98 0.66 3 1 C2.525625 1.70125 2.05125 2.4025 1.5625 3.125 C-0.18189925 5.930851 -0.18189925 5.930851 -0.4375 9.1875 C-0.623125 10.115625 -0.80875 11.04375 -1 12 C-1.89138672 12.41378906 -1.89138672 12.41378906 -2.80078125 12.8359375 C-5.83847959 14.44381335 -6.9485987 16.5390915 -8.75 19.4375 C-9.36359375 20.40558594 -9.9771875 21.37367188 -10.609375 22.37109375 C-12.23379298 24.94629845 -12.23379298 24.94629845 -12 28 C-17.75 26.25 -17.75 26.25 -20 24 C-18.68 24 -17.36 24 -16 24 C-15.79375 23.34 -15.5875 22.68 -15.375 22 C-13.79075306 18.54346122 -11.70149252 15.90047358 -9.375 12.9140625 C-7.86668638 10.98682771 -7.86668638 10.98682771 -7 8.375 C-5.4750699 4.75329102 -2.85689612 2.67057681 0 0 Z " fill="#EBF5E4" transform="translate(88,237)"/>
<path d="M0 0 C0.66 0.33 1.32 0.66 2 1 C0.07718121 5.97280721 -3.90163147 8.02987866 -8.14453125 10.9609375 C-10.94055319 12.86878251 -10.94055319 12.86878251 -13.01171875 14.8515625 C-18.21708177 19.61655858 -22.8243565 19.55986355 -29.73046875 19.30859375 C-32.55706152 19.04180662 -35.23482969 18.63010472 -38 18 C-38 17.34 -38 16.68 -38 16 C-36.72769531 16.13921875 -36.72769531 16.13921875 -35.4296875 16.28125 C-23.06921365 17.04189454 -15.13574948 12.53801006 -5.8125 4.625 C-4.4203125 3.325625 -4.4203125 3.325625 -3 2 C-2.01 1.34 -1.02 0.68 0 0 Z " fill="#E9F4E2" transform="translate(62,129)"/>
<path d="M0 0 C1.65 0.66 3.3 1.32 5 2 C5 2.66 5 3.32 5 4 C3.7625 4.061875 2.525 4.12375 1.25 4.1875 C-0.97228295 4.38018012 -0.97228295 4.38018012 -3 5 C-3.639375 5.86625 -4.27875 6.7325 -4.9375 7.625 C-7 10 -7 10 -9.02734375 10.17578125 C-13.55311731 9.71642653 -17.74754269 8.6355605 -22 7 C-21.34 5.68 -20.68 4.36 -20 3 C-21.32 2.67 -22.64 2.34 -24 2 C-22.71802734 2.12568359 -22.71802734 2.12568359 -21.41015625 2.25390625 C-19.75306641 2.40666016 -19.75306641 2.40666016 -18.0625 2.5625 C-16.96035156 2.66691406 -15.85820312 2.77132812 -14.72265625 2.87890625 C-13.82417969 2.91886719 -12.92570313 2.95882812 -12 3 C-11.67 2.67 -11.34 2.34 -11 2 C-9.14712498 1.92773498 -7.29166122 1.9161878 -5.4375 1.9375 C-4.42558594 1.94652344 -3.41367188 1.95554687 -2.37109375 1.96484375 C-1.19740234 1.98224609 -1.19740234 1.98224609 0 2 C0 1.34 0 0.68 0 0 Z " fill="#EFF7E9" transform="translate(229,100)"/>
<path d="M0 0 C0 0.99 0 1.98 0 3 C-0.62003906 3.18433594 -1.24007812 3.36867187 -1.87890625 3.55859375 C-14.39011566 7.65615142 -25.09391215 14.68452094 -34.828125 23.4453125 C-35.54484375 23.95835938 -36.2615625 24.47140625 -37 25 C-37.99 24.67 -38.98 24.34 -40 24 C-30.56023703 14.42610186 -14.64806234 0 0 0 Z " fill="#E9F4E2" transform="translate(238,49)"/>
<path d="M0 0 C0.66 0 1.32 0 2 0 C4.54645031 3.88178401 4.44827986 8.07371584 4.625 12.5625 C4.68083252 13.77087524 4.68083252 13.77087524 4.73779297 15.00366211 C5.13453044 24.11674012 5.1879563 32.94183319 4 42 C3.67 42 3.34 42 3 42 C2.94465088 41.08299316 2.88930176 40.16598633 2.83227539 39.22119141 C2.6232191 35.77317659 2.41239974 32.32527847 2.20043945 28.87744141 C2.10957882 27.39375963 2.0193926 25.91003637 1.92993164 24.42626953 C1.43744901 16.26591484 0.88985289 8.12892638 0 0 Z " fill="#E5F2DC" transform="translate(191,20)"/>
<path d="M0 0 C0.33 0.99 0.66 1.98 1 3 C-2.70060202 6.92488093 -6.4906925 10.02215543 -11 13 C-11.66 13 -12.32 13 -13 13 C-13 12.34 -13 11.68 -13 11 C-13.66 10.67 -14.32 10.34 -15 10 C-14.00419922 9.41992188 -14.00419922 9.41992188 -12.98828125 8.828125 C-8.41482889 6.13078959 -4.02747372 3.49047722 0 0 Z " fill="#4DA815" transform="translate(164,137)"/>
<path d="M0 0 C0.66 0.33 1.32 0.66 2 1 C2 3.64 2 6.28 2 9 C-3.75 7.25 -3.75 7.25 -6 5 C-4.68 5 -3.36 5 -2 5 C-1.34 3.35 -0.68 1.7 0 0 Z " fill="#D7EBC8" transform="translate(74,256)"/>
<path d="M0 0 C4.62 0 9.24 0 14 0 C14 0.66 14 1.32 14 2 C10.59598052 3.13732426 8.22543336 2.83989957 4.75 2.0625 C3.85796875 1.86785156 2.9659375 1.67320313 2.046875 1.47265625 C1.37140625 1.31667969 0.6959375 1.16070312 0 1 C0 0.67 0 0.34 0 0 Z " fill="#55AC1A" transform="translate(126,118)"/>
<path d="M0 0 C0.33 1.32 0.66 2.64 1 4 C1.66 4 2.32 4 3 4 C3 5.32 3 6.64 3 8 C1.68 7.67 0.36 7.34 -1 7 C-0.67 4.69 -0.34 2.38 0 0 Z " fill="#5FB12E" transform="translate(183,68)"/>
<path d="M0 0 C1.32 0.33 2.64 0.66 4 1 C3.67 3.31 3.34 5.62 3 8 C0.37613513 4.93882432 0 4.26826873 0 0 Z " fill="#F0F7EB" transform="translate(179,67)"/>
<path d="M0 0 C0 0.99 0 1.98 0 3 C-2.31 3.66 -4.62 4.32 -7 5 C-7.33 4.01 -7.66 3.02 -8 2 C-2.25 0 -2.25 0 0 0 Z " fill="#D5EAC5" transform="translate(238,49)"/>
<path d="M0 0 C0.33 0.99 0.66 1.98 1 3 C-0.9375 5.6875 -0.9375 5.6875 -3 8 C-3.33 6.35 -3.66 4.7 -4 3 C-2.68 2.01 -1.36 1.02 0 0 Z " fill="#F7FBF5" transform="translate(79,252)"/>
<path d="M0 0 C3 1 3 1 3 1 Z " fill="#4CB302" transform="translate(172,278)"/>
<path d="M0 0 C3 1 3 1 3 1 Z " fill="#4CB302" transform="translate(105,278)"/>
<path d="M0 0 C3 1 3 1 3 1 Z " fill="#49AC02" transform="translate(176,277)"/>
<path d="M0 0 C3 1 3 1 3 1 Z " fill="#49AC02" transform="translate(101,277)"/>
<path d="M0 0 C3 1 3 1 3 1 Z " fill="#49AC03" transform="translate(179,276)"/>
<path d="M0 0 C3 1 3 1 3 1 Z " fill="#49AC03" transform="translate(98,276)"/>
<path d="M0 0 C3 1 3 1 3 1 Z " fill="#49AC03" transform="translate(182,275)"/>
<path d="M0 0 C3 1 3 1 3 1 Z " fill="#49AC03" transform="translate(95,275)"/>
<path d="" fill="#49AC03" transform="translate(0,0)"/>
<path d="" fill="#49AC03" transform="translate(0,0)"/>
<path d="" fill="#49AC02" transform="translate(0,0)"/>
<path d="" fill="#49AC02" transform="translate(0,0)"/>
<path d="" fill="#49AC02" transform="translate(0,0)"/>
<path d="" fill="#49AC02" transform="translate(0,0)"/>
<path d="" fill="#4CB203" transform="translate(0,0)"/>
<path d="" fill="#4CB203" transform="translate(0,0)"/>
<path d="" fill="#4CB203" transform="translate(0,0)"/>
<path d="" fill="#4CB203" transform="translate(0,0)"/>
<path d="" fill="#49AC02" transform="translate(0,0)"/>
<path d="" fill="#49AC02" transform="translate(0,0)"/>
<path d="" fill="#49AC02" transform="translate(0,0)"/>
<path d="" fill="#49AC02" transform="translate(0,0)"/>
<path d="" fill="#49AC03" transform="translate(0,0)"/>
<path d="" fill="#49AC03" transform="translate(0,0)"/>
<path d="M0 0 C3 1 3 1 3 1 Z " fill="#49AC03" transform="translate(182,4)"/>
<path d="M0 0 C3 1 3 1 3 1 Z " fill="#49AC03" transform="translate(95,4)"/>
<path d="M0 0 C3 1 3 1 3 1 Z " fill="#49AC03" transform="translate(179,3)"/>
<path d="M0 0 C3 1 3 1 3 1 Z " fill="#49AC03" transform="translate(98,3)"/>
<path d="M0 0 C3 1 3 1 3 1 Z " fill="#49AC02" transform="translate(176,2)"/>
<path d="M0 0 C3 1 3 1 3 1 Z " fill="#49AC02" transform="translate(101,2)"/>
<path d="M0 0 C3 1 3 1 3 1 Z " fill="#4CB302" transform="translate(172,1)"/>
<path d="M0 0 C3 1 3 1 3 1 Z " fill="#4CB302" transform="translate(105,1)"/>
<path d="M0 0 C2 1 2 1 2 1 Z " fill="#46A602" transform="translate(168,279)"/>
<path d="M0 0 C2 1 2 1 2 1 Z " fill="#46A602" transform="translate(110,279)"/>
<path d="M0 0 C2 1 2 1 2 1 Z " fill="#47A603" transform="translate(185,274)"/>
<path d="M0 0 C2 1 2 1 2 1 Z " fill="#47A603" transform="translate(93,274)"/>
<path d="M0 0 C2 1 2 1 2 1 Z " fill="#47A602" transform="translate(188,273)"/>
<path d="M0 0 C2 1 2 1 2 1 Z " fill="#47A602" transform="translate(90,273)"/>
<path d="M0 0 C2 1 2 1 2 1 Z " fill="#46A502" transform="translate(190,272)"/>
<path d="M0 0 C2 1 2 1 2 1 Z " fill="#46A502" transform="translate(88,272)"/>
<path d="M0 0 C2 1 2 1 2 1 Z " fill="#48A903" transform="translate(193,271)"/>
<path d="M0 0 C2 1 2 1 2 1 Z " fill="#48A903" transform="translate(85,271)"/>
<path d="M0 0 C2 1 2 1 2 1 Z " fill="#48A903" transform="translate(195,270)"/>
<path d="M0 0 C2 1 2 1 2 1 Z " fill="#48A903" transform="translate(83,270)"/>
<path d="M0 0 C2 1 2 1 2 1 Z " fill="#49AC03" transform="translate(213,261)"/>
<path d="M0 0 C2 1 2 1 2 1 Z " fill="#46A402" transform="translate(216,259)"/>
<path d="" fill="#46A503" transform="translate(0,0)"/>
<path d="" fill="#46A503" transform="translate(0,0)"/>
<path d="" fill="#49AC03" transform="translate(0,0)"/>
<path d="" fill="#49AC03" transform="translate(0,0)"/>
<path d="" fill="#48A903" transform="translate(0,0)"/>
<path d="" fill="#48A903" transform="translate(0,0)"/>
<path d="" fill="#48A903" transform="translate(0,0)"/>
<path d="" fill="#48A903" transform="translate(0,0)"/>
<path d="" fill="#46A602" transform="translate(0,0)"/>
<path d="" fill="#46A602" transform="translate(0,0)"/>
<path d="" fill="#47A603" transform="translate(0,0)"/>
<path d="" fill="#47A603" transform="translate(0,0)"/>
<path d="" fill="#46A503" transform="translate(0,0)"/>
<path d="" fill="#46A503" transform="translate(0,0)"/>
<path d="" fill="#46A602" transform="translate(0,0)"/>
<path d="" fill="#46A602" transform="translate(0,0)"/>
<path d="" fill="#46A602" transform="translate(0,0)"/>
<path d="" fill="#46A602" transform="translate(0,0)"/>
<path d="" fill="#46A503" transform="translate(0,0)"/>
<path d="" fill="#46A503" transform="translate(0,0)"/>
<path d="" fill="#47A603" transform="translate(0,0)"/>
<path d="" fill="#47A603" transform="translate(0,0)"/>
<path d="" fill="#46A602" transform="translate(0,0)"/>
<path d="" fill="#46A602" transform="translate(0,0)"/>
<path d="" fill="#48A903" transform="translate(0,0)"/>
<path d="" fill="#48A903" transform="translate(0,0)"/>
<path d="" fill="#48A903" transform="translate(0,0)"/>
<path d="" fill="#48A903" transform="translate(0,0)"/>
<path d="" fill="#49AC03" transform="translate(0,0)"/>
<path d="" fill="#49AC03" transform="translate(0,0)"/>
<path d="" fill="#46A503" transform="translate(0,0)"/>
<path d="" fill="#46A503" transform="translate(0,0)"/>
<path d="M0 0 C2 1 2 1 2 1 Z " fill="#46A402" transform="translate(216,20)"/>
<path d="M0 0 C2 1 2 1 2 1 Z " fill="#46A402" transform="translate(62,20)"/>
<path d="M0 0 C2 1 2 1 2 1 Z " fill="#49AC03" transform="translate(213,18)"/>
<path d="M0 0 C2 1 2 1 2 1 Z " fill="#49AC03" transform="translate(65,18)"/>
<path d="M0 0 C2 1 2 1 2 1 Z " fill="#48A903" transform="translate(195,9)"/>
<path d="M0 0 C2 1 2 1 2 1 Z " fill="#48A903" transform="translate(83,9)"/>
<path d="M0 0 C2 1 2 1 2 1 Z " fill="#48A903" transform="translate(193,8)"/>
<path d="M0 0 C2 1 2 1 2 1 Z " fill="#48A903" transform="translate(85,8)"/>
<path d="M0 0 C2 1 2 1 2 1 Z " fill="#46A502" transform="translate(190,7)"/>
<path d="M0 0 C2 1 2 1 2 1 Z " fill="#46A502" transform="translate(88,7)"/>
<path d="M0 0 C2 1 2 1 2 1 Z " fill="#47A602" transform="translate(188,6)"/>
<path d="M0 0 C2 1 2 1 2 1 Z " fill="#47A602" transform="translate(90,6)"/>
<path d="M0 0 C2 1 2 1 2 1 Z " fill="#47A603" transform="translate(185,5)"/>
<path d="M0 0 C2 1 2 1 2 1 Z " fill="#47A603" transform="translate(93,5)"/>
<path d="M0 0 C2 1 2 1 2 1 Z " fill="#46A602" transform="translate(168,0)"/>
<path d="M0 0 C2 1 2 1 2 1 Z " fill="#46A602" transform="translate(110,0)"/>
<path d="" fill="#4DB203" transform="translate(0,0)"/>
<path d="" fill="#4DB403" transform="translate(0,0)"/>
<path d="" fill="#4AAC03" transform="translate(0,0)"/>
<path d="" fill="#4AAC03" transform="translate(0,0)"/>
<path d="" fill="#8ACA59" transform="translate(0,0)"/>
<path d="" fill="#47A603" transform="translate(0,0)"/>
<path d="" fill="#45A601" transform="translate(0,0)"/>
<path d="" fill="#45A603" transform="translate(0,0)"/>
<path d="" fill="#47A603" transform="translate(0,0)"/>
<path d="" fill="#47A603" transform="translate(0,0)"/>
<path d="" fill="#47A603" transform="translate(0,0)"/>
<path d="" fill="#45A403" transform="translate(0,0)"/>
<path d="" fill="#47A603" transform="translate(0,0)"/>
<path d="" fill="#47A603" transform="translate(0,0)"/>
<path d="" fill="#47A603" transform="translate(0,0)"/>
<path d="" fill="#47A403" transform="translate(0,0)"/>
<path d="" fill="#47A603" transform="translate(0,0)"/>
<path d="" fill="#47A603" transform="translate(0,0)"/>
<path d="" fill="#47A603" transform="translate(0,0)"/>
<path d="" fill="#47A603" transform="translate(0,0)"/>
<path d="" fill="#4AAC03" transform="translate(0,0)"/>
<path d="" fill="#4AAC03" transform="translate(0,0)"/>
<path d="" fill="#47A603" transform="translate(0,0)"/>
<path d="" fill="#46A501" transform="translate(0,0)"/>
<path d="" fill="#47A603" transform="translate(0,0)"/>
<path d="" fill="#47A501" transform="translate(0,0)"/>
<path d="" fill="#47A603" transform="translate(0,0)"/>
<path d="" fill="#48A504" transform="translate(0,0)"/>
<path d="" fill="#47A603" transform="translate(0,0)"/>
<path d="" fill="#47A503" transform="translate(0,0)"/>
<path d="" fill="#47A603" transform="translate(0,0)"/>
<path d="" fill="#46A503" transform="translate(0,0)"/>
<path d="" fill="#49AC03" transform="translate(0,0)"/>
<path d="" fill="#4AAC03" transform="translate(0,0)"/>
<path d="" fill="#49AC03" transform="translate(0,0)"/>
<path d="" fill="#49AC03" transform="translate(0,0)"/>
<path d="" fill="#49AC03" transform="translate(0,0)"/>
<path d="" fill="#49AC03" transform="translate(0,0)"/>
<path d="" fill="#4AAC03" transform="translate(0,0)"/>
<path d="" fill="#4AAC03" transform="translate(0,0)"/>
<path d="" fill="#47A603" transform="translate(0,0)"/>
<path d="" fill="#47A603" transform="translate(0,0)"/>
<path d="" fill="#47A603" transform="translate(0,0)"/>
<path d="" fill="#47A603" transform="translate(0,0)"/>
<path d="" fill="#47A603" transform="translate(0,0)"/>
<path d="" fill="#47A603" transform="translate(0,0)"/>
<path d="" fill="#47A603" transform="translate(0,0)"/>
<path d="" fill="#47A603" transform="translate(0,0)"/>
<path d="" fill="#47A603" transform="translate(0,0)"/>
<path d="" fill="#47A603" transform="translate(0,0)"/>
<path d="" fill="#4AAD03" transform="translate(0,0)"/>
<path d="" fill="#4AAD03" transform="translate(0,0)"/>
<path d="" fill="#47A603" transform="translate(0,0)"/>
<path d="" fill="#47A603" transform="translate(0,0)"/>
<path d="" fill="#45A603" transform="translate(0,0)"/>
<path d="" fill="#45A603" transform="translate(0,0)"/>
<path d="" fill="#45A403" transform="translate(0,0)"/>
<path d="" fill="#45A403" transform="translate(0,0)"/>
<path d="" fill="#47A603" transform="translate(0,0)"/>
<path d="" fill="#47A603" transform="translate(0,0)"/>
<path d="" fill="#47A603" transform="translate(0,0)"/>
<path d="" fill="#47A603" transform="translate(0,0)"/>
<path d="" fill="#45A403" transform="translate(0,0)"/>
<path d="" fill="#45A403" transform="translate(0,0)"/>
<path d="" fill="#47A603" transform="translate(0,0)"/>
<path d="" fill="#47A603" transform="translate(0,0)"/>
<path d="" fill="#49AC03" transform="translate(0,0)"/>
<path d="" fill="#49AC03" transform="translate(0,0)"/>
<path d="" fill="#4AAD03" transform="translate(0,0)"/>
<path d="" fill="#4AAD03" transform="translate(0,0)"/>
<path d="" fill="#4CB203" transform="translate(0,0)"/>
<path d="" fill="#4CB203" transform="translate(0,0)"/>
<path d="" fill="#4CB203" transform="translate(0,0)"/>
<path d="" fill="#4CB203" transform="translate(0,0)"/>
<path d="" fill="#4AAD03" transform="translate(0,0)"/>
<path d="" fill="#4AAD03" transform="translate(0,0)"/>
<path d="" fill="#49AC03" transform="translate(0,0)"/>
<path d="" fill="#49AC03" transform="translate(0,0)"/>
<path d="" fill="#47A603" transform="translate(0,0)"/>
<path d="" fill="#47A603" transform="translate(0,0)"/>
<path d="" fill="#45A403" transform="translate(0,0)"/>
<path d="" fill="#45A403" transform="translate(0,0)"/>
<path d="" fill="#47A603" transform="translate(0,0)"/>
<path d="" fill="#47A603" transform="translate(0,0)"/>
<path d="" fill="#47A603" transform="translate(0,0)"/>
<path d="" fill="#47A603" transform="translate(0,0)"/>
<path d="" fill="#45A403" transform="translate(0,0)"/>
<path d="" fill="#45A403" transform="translate(0,0)"/>
<path d="" fill="#47A502" transform="translate(0,0)"/>
<path d="" fill="#45A603" transform="translate(0,0)"/>
<path d="" fill="#47A603" transform="translate(0,0)"/>
<path d="" fill="#47A603" transform="translate(0,0)"/>
<path d="" fill="#4AAD03" transform="translate(0,0)"/>
<path d="" fill="#4AAD03" transform="translate(0,0)"/>
<path d="" fill="#47A603" transform="translate(0,0)"/>
<path d="" fill="#47A603" transform="translate(0,0)"/>
<path d="" fill="#47A603" transform="translate(0,0)"/>
<path d="" fill="#47A603" transform="translate(0,0)"/>
<path d="" fill="#47A603" transform="translate(0,0)"/>
<path d="" fill="#47A603" transform="translate(0,0)"/>
<path d="" fill="#47A603" transform="translate(0,0)"/>
<path d="" fill="#47A603" transform="translate(0,0)"/>
<path d="" fill="#47A603" transform="translate(0,0)"/>
<path d="" fill="#47A603" transform="translate(0,0)"/>
<path d="" fill="#4AAC03" transform="translate(0,0)"/>
<path d="" fill="#4AAC03" transform="translate(0,0)"/>
<path d="" fill="#49AC03" transform="translate(0,0)"/>
<path d="" fill="#49AC03" transform="translate(0,0)"/>
<path d="" fill="#49AC03" transform="translate(0,0)"/>
<path d="" fill="#49AC03" transform="translate(0,0)"/>
<path d="" fill="#49AC03" transform="translate(0,0)"/>
<path d="" fill="#49AC03" transform="translate(0,0)"/>
<path d="" fill="#47A603" transform="translate(0,0)"/>
<path d="" fill="#47A603" transform="translate(0,0)"/>
<path d="" fill="#47A603" transform="translate(0,0)"/>
<path d="" fill="#47A603" transform="translate(0,0)"/>
<path d="" fill="#47A603" transform="translate(0,0)"/>
<path d="" fill="#47A603" transform="translate(0,0)"/>
<path d="" fill="#47A603" transform="translate(0,0)"/>
<path d="" fill="#47A603" transform="translate(0,0)"/>
<path d="" fill="#47A603" transform="translate(0,0)"/>
<path d="" fill="#47A603" transform="translate(0,0)"/>
<path d="" fill="#4AAC03" transform="translate(0,0)"/>
<path d="" fill="#4AAC03" transform="translate(0,0)"/>
<path d="" fill="#47A603" transform="translate(0,0)"/>
<path d="" fill="#47A603" transform="translate(0,0)"/>
<path d="" fill="#47A603" transform="translate(0,0)"/>
<path d="" fill="#47A603" transform="translate(0,0)"/>
<path d="" fill="#47A603" transform="translate(0,0)"/>
<path d="" fill="#47A603" transform="translate(0,0)"/>
<path d="" fill="#47A603" transform="translate(0,0)"/>
<path d="" fill="#47A603" transform="translate(0,0)"/>
<path d="" fill="#47A603" transform="translate(0,0)"/>
<path d="" fill="#47A603" transform="translate(0,0)"/>
<path d="" fill="#45A603" transform="translate(0,0)"/>
<path d="" fill="#45A603" transform="translate(0,0)"/>
<path d="" fill="#47A603" transform="translate(0,0)"/>
<path d="" fill="#47A603" transform="translate(0,0)"/>
<path d="" fill="#4AAC03" transform="translate(0,0)"/>
<path d="" fill="#4AAC03" transform="translate(0,0)"/>
<path d="" fill="#4AAC03" transform="translate(0,0)"/>
<path d="" fill="#4AAC03" transform="translate(0,0)"/>
<path d="" fill="#4DB203" transform="translate(0,0)"/>
<path d="" fill="#4DB203" transform="translate(0,0)"/>
</svg>
