<svg viewBox="0 0 24 24" xmlns="http://www.w3.org/2000/svg"><path d="m11.879 15.199c-.101-.032-.216-.126-.361-.219-.144-.093-.318-.184-.386-.268s-.031-.161.029-.218c.06-.056.143-.092.262-.065s.272.116.418.212.283.199.334.288c.05.089.013.164-.048.217-.044.038-.101.065-.168.065-.026.001-.052-.003-.08-.012m-1.085-.872c-.093.086-.144.201-.033.338s.385.297.636.469c.252.172.481.357.665.42s.323.006.403-.096c.079-.102.099-.247-.004-.404-.102-.157-.327-.325-.564-.481-.237-.157-.488-.302-.681-.346-.046-.01-.088-.015-.127-.015-.128 0-.224.049-.295.115m5.264 4.978c-.058.041-.106.113-.093.185.012.072.084.146.173.255s.195.255.264.335.1.093.128.091.054-.018.085-.048.069-.074.095-.156.041-.204.002-.316-.133-.216-.218-.282c-.085-.067-.162-.096-.236-.106-.016-.002-.032-.003-.048-.003-.054-.001-.106.013-.152.045m.488.999c-.032-.001-.062-.023-.208-.171s-.409-.423-.573-.642c-.165-.219-.231-.383-.263-.568-.031-.185-.027-.391.082-.537.109-.145.323-.23.534-.238s.419.061.602.239c.183.179.34.468.383.732.042.265-.03.505-.125.692s-.212.32-.288.397c-.074.074-.109.095-.141.095-.002.001-.003.001-.003.001m-3.255-10.167c-.084.009-.193.111-.415.293s-.559.444-1.017.701c-.458.256-1.038.507-1.509.733s-.832.429-1.005.712c-.172.283-.155.648.04.851s.566.245.884.258c.317.013.58-.002.826.087.246.09.475.284.764.515s.637.499.926.562.518-.079.766-.203.516-.23.887-.225.847.121 1.318.37.938.63 1.184.867c.246.236.272.327.245.362-.027.036-.108.017-.304-.14-.196-.158-.507-.454-.916-.688s-.916-.405-1.399-.391c-.483.013-.941.211-1.231.55-.29.34-.412.822-.546 1.164s-.279.543-.47.617c-.19.074-.424.021-.704-.099-.279-.12-.604-.307-.873-.442-.269-.136-.484-.221-.62-.353s-.195-.311-.203-.571c-.009-.26.032-.601.051-.853.019-.251.017-.413-.039-.561-.055-.147-.164-.28-.233-.349s-.098-.075-.112-.058-.012.058.01.158c.023.1.066.26.049.582-.018.321-.097.803-.159 1.169-.062.367-.107.618-.02.809s.307.321.707.54c.401.219.982.527 1.519.854.536.327 1.027.674 1.561 1.089s1.112.9 1.501 1.238c.388.339.588.532.742.591.154.058.263-.018.307-.139s.023-.285-.014-.429-.091-.266-.24-.46-.394-.46-.68-.704c-.286-.243-.613-.463-.803-.614s-.242-.233-.212-.258c.03-.026.141.004.303.107.162.104.374.281.611.459s.499.356.734.584.442.506.583.707c.14.201.214.324.294.372s.166.021.277-.05.249-.186.427-.355.397-.393.551-.634c.154-.24.242-.496.299-.772.056-.276.081-.572.247-.861.167-.29.476-.574.994-1.025s1.244-1.07 1.891-1.665 1.216-1.165 1.695-1.802.87-1.342 1.068-1.743.204-.499.14-.526c-.064-.028-.198.015-.611.312s-1.105.849-1.886 1.43-1.65 1.191-2.336 1.569-1.189.524-1.55.562c-.361.037-.58-.034-.723-.11s-.211-.157-.224-.241.029-.169.135-.275.277-.232.446-.392c.17-.16.339-.354.468-.556.13-.202.22-.412.262-.593s.034-.333-.04-.376-.215.023-.377.11c-.161.086-.343.193-.593.301-.249.108-.566.216-.92.235-.354.018-.746-.053-1.089-.313-.342-.26-.635-.709-.866-1.147-.23-.438-.399-.864-.513-1.119-.108-.242-.167-.33-.245-.33-.007.002-.011.002-.015.002m-6.808-7.017c-.512.044-1.25.181-1.803.329-.552.148-.917.307-1.149.42-.231.112-.33.178-.354.272-.024.095.027.218.16.436.132.219.346.533.535.961.19.428.356.97.361 1.651.006.68-.149 1.499-.245 1.962s-.133.569-.227.619-.245.043-.526-.021c-.28-.065-.69-.187-1.1-.259-.409-.072-.818-.093-1.121-.038-.304.056-.504.189-.645.368-.141.18-.224.407-.282.75s-.091.802-.087 1.118c.005.316.047.489.136.583s.223.109.492.054.672-.18 1.224-.215c.553-.035 1.255.02 1.94.202s1.352.491 1.95.929c.598.439 1.127 1.008 1.565 1.594.439.586.787 1.189 1.004 1.541s.304.455.371.42c.068-.035.118-.207.145-.417.028-.209.033-.456-.02-.848s-.165-.93-.319-1.366-.35-.77-.495-1.018c-.146-.247-.242-.407-.245-.51-.004-.103.085-.148.51-.315s1.186-.457 1.958-.808 1.557-.764 2.042-1.106c.486-.341.674-.611.724-.937s-.039-.709-.159-1.076-.272-.717-.53-1.193c-.257-.476-.62-1.077-1.014-1.604-.394-.528-.818-.982-1.1-1.236-.281-.253-.42-.308-.51-.288s-.13.114-.167.47-.069.973-.144 1.559-.192 1.141-.432 1.773c-.239.632-.601 1.342-.99 1.982-.388.641-.804 1.212-1.054 1.462s-.336.179-.477.063-.337-.275-.486-.4-.253-.214-.273-.293c-.02-.08.044-.15.27-.448s.614-.824.96-1.477.649-1.432.796-2.283c.148-.85.139-1.773.095-2.337s-.124-.77-.306-.896c-.137-.095-.332-.146-.638-.146-.101 0-.213.006-.34.017"/></svg>